<?xml version="1.0" standalone="no"?>
<!DOCTYPE svg PUBLIC "-//W3C//DTD SVG 20010904//EN"
 "http://www.w3.org/TR/2001/REC-SVG-20010904/DTD/svg10.dtd">
<svg version="1.0" xmlns="http://www.w3.org/2000/svg"
 width="260.000000pt" height="260.000000pt" viewBox="0 0 260.000000 260.000000"
 preserveAspectRatio="xMidYMid meet">
<metadata>
Created by potrace 1.11, written by Peter Selinger 2001-2013
</metadata>
<g transform="translate(0.000000,260.000000) scale(0.100000,-0.100000)"
fill="#000000" stroke="none">
<path d="M760 2142 c0 -11 357 -807 399 -889 l31 -62 0 -381 0 -380 115 0 115
0 0 381 0 380 259 447 c142 246 266 462 275 480 l17 32 -118 0 -118 0 -208
-362 c-114 -200 -211 -369 -215 -375 -5 -8 -87 126 -222 362 l-215 375 -57 0
c-32 0 -58 -4 -58 -8z"/>
</g>
</svg>
